<?xml version="1.0" encoding="UTF-8"?>
<!DOCTYPE svg PUBLIC "-//W3C//DTD SVG 1.1//EN" "http://www.w3.org/Graphics/SVG/1.1/DTD/svg11.dtd">
<!-- Creator: CorelDRAW 2019 (64 Bit) -->
<svg xmlns="http://www.w3.org/2000/svg" xml:space="preserve" width="132.292mm" height="132.292mm" version="1.1" style="shape-rendering:geometricPrecision; text-rendering:geometricPrecision; image-rendering:optimizeQuality; fill-rule:evenodd; clip-rule:evenodd"
viewBox="0 0 132291.6 132291.6"
 xmlns:xlink="http://www.w3.org/1999/xlink"
 xmlns:xodm="http://www.corel.com/coreldraw/odm/2003">
 <defs>
  <style type="text/css">
   <![CDATA[
    .fil1 {fill:#289DB9}
    .fil0 {fill:white}
   ]]>
  </style>
 </defs>
 <g id="Camada_x0020_1">
  <metadata id="CorelCorpID_0Corel-Layer"/>
  <g id="black">
   <g>
    <path class="fil0" d="M28633.5 74263.8l28075.6 0c3165,0 4900.3,2587.1 3858.8,5752.1l-14228.2 43248.9c-1041.4,3165 -4480.3,5752.1 -7643.8,5752.1l-28077.2 0c-3165,0 -4900.3,-2587.1 -3858.8,-5752.1l14228.2 -43248.9c1041.5,-3165 4480.4,-5752.1 7645.4,-5752.1z"/>
    <path class="fil1" d="M50472.4 9639.6c-2317.6,4712.1 -28786,54113.4 -24529.9,54382.8 51216.5,3259.8 35084.5,7600.2 59853.7,59236.4 1438.7,3000.9 4480.3,5752 7643.8,5752l28077.2 0c3165,0 5297.6,-2748.1 3858.8,-5752l-52527.3 -109509.1c-8212.8,-17125.2 -19829.8,-9287.2 -22376.3,-4110.1z"/>
   </g>
  </g>
 </g>
</svg>
