<svg width="308" height="308" viewBox="0 0 308 308" fill="none" xmlns="http://www.w3.org/2000/svg">
<path d="M0 20C0 8.9543 8.9543 0 20 0H287.5C298.546 0 307.5 8.9543 307.5 20V287.5C307.5 298.546 298.546 307.5 287.5 307.5H20C8.9543 307.5 0 298.546 0 287.5V20Z" fill="white"/>
<path d="M30 33.75H82.5H30ZM97.5 33.75H112.5H97.5ZM127.5 33.75H135H127.5ZM150 33.75H180H150ZM202.5 33.75H210H202.5ZM225 33.75H277.5H225ZM30 41.25H37.5H30ZM75 41.25H82.5H75ZM97.5 41.25H105H97.5ZM120 41.25H127.5H120ZM135 41.25H157.5H135ZM180 41.25H195H180ZM225 41.25H232.5H225ZM270 41.25H277.5H270ZM30 48.75H37.5H30ZM45 48.75H67.5H45ZM75 48.75H82.5H75ZM90 48.75H120H90ZM135 48.75H142.5H135ZM165 48.75H172.5H165ZM180 48.75H195H180ZM210 48.75H217.5H210ZM225 48.75H232.5H225ZM240 48.75H262.5H240ZM270 48.75H277.5H270ZM30 56.25H37.5H30ZM45 56.25H67.5H45ZM75 56.25H82.5H75ZM90 56.25H112.5H90ZM127.5 56.25H135H127.5ZM142.5 56.25H165H142.5ZM172.5 56.25H180H172.5ZM195 56.25H210H195ZM225 56.25H232.5H225ZM240 56.25H262.5H240ZM270 56.25H277.5H270ZM30 63.75H37.5H30ZM45 63.75H67.5H45ZM75 63.75H82.5H75ZM90 63.75H97.5H90ZM120 63.75H142.5H120ZM157.5 63.75H165H157.5ZM172.5 63.75H187.5H172.5ZM195 63.75H210H195ZM225 63.75H232.5H225ZM240 63.75H262.5H240ZM270 63.75H277.5H270ZM30 71.25H37.5H30ZM75 71.25H82.5H75ZM90 71.25H105H90ZM127.5 71.25H165H127.5ZM180 71.25H187.5H180ZM195 71.25H202.5H195ZM225 71.25H232.5H225ZM270 71.25H277.5H270ZM30 78.75H82.5H30ZM90 78.75H97.5H90ZM105 78.75H112.5H105ZM120 78.75H127.5H120ZM135 78.75H142.5H135ZM150 78.75H157.5H150ZM165 78.75H172.5H165ZM180 78.75H187.5H180ZM195 78.75H202.5H195ZM210 78.75H217.5H210ZM225 78.75H277.5H225ZM90 86.25H97.5H90ZM105 86.25H112.5H105ZM120 86.25H127.5H120ZM135 86.25H142.5H135ZM150 86.25H157.5H150ZM165 86.25H195H165ZM202.5 86.25H210H202.5ZM30 93.75H37.5H30ZM45 93.75H82.5H45ZM97.5 93.75H105H97.5ZM127.5 93.75H150H127.5ZM157.5 93.75H165H157.5ZM195 93.75H202.5H195ZM210 93.75H217.5H210ZM225 93.75H262.5H225ZM30 101.25H37.5H30ZM52.5 101.25H60H52.5ZM120 101.25H135H120ZM150 101.25H157.5H150ZM165 101.25H210H165ZM225 101.25H240H225ZM247.5 101.25H277.5H247.5ZM52.5 108.75H60H52.5ZM67.5 108.75H82.5H67.5ZM105 108.75H120H105ZM135 108.75H157.5H135ZM180 108.75H187.5H180ZM210 108.75H225H210ZM240 108.75H247.5H240ZM255 108.75H270H255ZM52.5 116.25H67.5H52.5ZM82.5 116.25H90H82.5ZM105 116.25H112.5H105ZM120 116.25H127.5H120ZM135 116.25H142.5H135ZM187.5 116.25H210H187.5ZM217.5 116.25H232.5H217.5ZM240 116.25H262.5H240ZM270 116.25H277.5H270ZM37.5 123.75H45H37.5ZM75 123.75H90H75ZM112.5 123.75H127.5H112.5ZM142.5 123.75H165H142.5ZM195 123.75H210H195ZM217.5 123.75H225H217.5ZM232.5 123.75H255H232.5ZM262.5 123.75H277.5H262.5ZM45 131.25H67.5H45ZM82.5 131.25H90H82.5ZM127.5 131.25H135H127.5ZM150 131.25H157.5H150ZM165 131.25H172.5H165ZM180 131.25H195H180ZM217.5 131.25H232.5H217.5ZM247.5 131.25H277.5H247.5ZM45 138.75H52.5H45ZM60 138.75H67.5H60ZM75 138.75H82.5H75ZM90 138.75H127.5H90ZM135 138.75H172.5H135ZM180 138.75H187.5H180ZM217.5 138.75H232.5H217.5ZM255 138.75H270H255ZM30 146.25H37.5H30ZM52.5 146.25H75H52.5ZM82.5 146.25H97.5H82.5ZM105 146.25H127.5H105ZM172.5 146.25H202.5H172.5ZM217.5 146.25H262.5H217.5ZM30 153.75H67.5H30ZM75 153.75H82.5H75ZM97.5 153.75H105H97.5ZM112.5 153.75H127.5H112.5ZM135 153.75H165H135ZM172.5 153.75H180H172.5ZM195 153.75H225H195ZM232.5 153.75H255H232.5ZM270 153.75H277.5H270ZM30 161.25H37.5H30ZM52.5 161.25H60H52.5ZM67.5 161.25H75H67.5ZM120 161.25H135H120ZM150 161.25H157.5H150ZM165 161.25H240H165ZM247.5 161.25H262.5H247.5ZM270 161.25H277.5H270ZM37.5 168.75H45H37.5ZM75 168.75H82.5H75ZM97.5 168.75H112.5H97.5ZM120 168.75H127.5H120ZM142.5 168.75H172.5H142.5ZM187.5 168.75H202.5H187.5ZM232.5 168.75H247.5H232.5ZM255 168.75H262.5H255ZM45 176.25H52.5H45ZM90 176.25H97.5H90ZM105 176.25H127.5H105ZM135 176.25H157.5H135ZM165 176.25H180H165ZM187.5 176.25H195H187.5ZM202.5 176.25H210H202.5ZM217.5 176.25H270H217.5ZM52.5 183.75H60H52.5ZM67.5 183.75H97.5H67.5ZM127.5 183.75H150H127.5ZM157.5 183.75H165H157.5ZM210 183.75H225H210ZM232.5 183.75H255H232.5ZM30 191.25H45H30ZM67.5 191.25H75H67.5ZM97.5 191.25H112.5H97.5ZM120 191.25H127.5H120ZM135 191.25H142.5H135ZM150 191.25H172.5H150ZM180 191.25H202.5H180ZM225 191.25H232.5H225ZM255 191.25H262.5H255ZM270 191.25H277.5H270ZM30 198.75H37.5H30ZM52.5 198.75H67.5H52.5ZM75 198.75H90H75ZM105 198.75H112.5H105ZM127.5 198.75H135H127.5ZM142.5 198.75H165H142.5ZM180 198.75H202.5H180ZM217.5 198.75H225H217.5ZM240 198.75H255H240ZM262.5 198.75H270H262.5ZM30 206.25H37.5H30ZM45 206.25H52.5H45ZM67.5 206.25H75H67.5ZM97.5 206.25H127.5H97.5ZM142.5 206.25H150H142.5ZM187.5 206.25H195H187.5ZM217.5 206.25H232.5H217.5ZM240 206.25H262.5H240ZM270 206.25H277.5H270ZM30 213.75H37.5H30ZM75 213.75H82.5H75ZM90 213.75H97.5H90ZM105 213.75H112.5H105ZM120 213.75H142.5H120ZM157.5 213.75H165H157.5ZM180 213.75H187.5H180ZM195 213.75H247.5H195ZM262.5 213.75H277.5H262.5ZM90 221.25H97.5H90ZM105 221.25H112.5H105ZM135 221.25H142.5H135ZM150 221.25H195H150ZM202.5 221.25H217.5H202.5ZM240 221.25H247.5H240ZM255 221.25H262.5H255ZM270 221.25H277.5H270ZM30 228.75H82.5H30ZM97.5 228.75H105H97.5ZM127.5 228.75H165H127.5ZM180 228.75H187.5H180ZM202.5 228.75H217.5H202.5ZM225 228.75H232.5H225ZM240 228.75H247.5H240ZM255 228.75H270H255ZM30 236.25H37.5H30ZM75 236.25H82.5H75ZM90 236.25H112.5H90ZM127.5 236.25H142.5H127.5ZM150 236.25H157.5H150ZM165 236.25H217.5H165ZM240 236.25H262.5H240ZM30 243.75H37.5H30ZM45 243.75H67.5H45ZM75 243.75H82.5H75ZM90 243.75H105H90ZM150 243.75H157.5H150ZM180 243.75H187.5H180ZM195 243.75H202.5H195ZM210 243.75H255H210ZM262.5 243.75H277.5H262.5ZM30 251.25H37.5H30ZM45 251.25H67.5H45ZM75 251.25H82.5H75ZM90 251.25H97.5H90ZM105 251.25H135H105ZM150 251.25H165H150ZM172.5 251.25H180H172.5ZM187.5 251.25H195H187.5ZM202.5 251.25H210H202.5ZM217.5 251.25H225H217.5ZM240 251.25H247.5H240ZM262.5 251.25H277.5H262.5ZM30 258.75H37.5H30ZM45 258.75H67.5H45ZM75 258.75H82.5H75ZM90 258.75H135H90ZM142.5 258.75H157.5H142.5ZM187.5 258.75H195H187.5ZM202.5 258.75H240H202.5ZM247.5 258.75H262.5H247.5ZM30 266.25H37.5H30ZM75 266.25H82.5H75ZM105 266.25H112.5H105ZM127.5 266.25H150H127.5ZM180 266.25H210H180ZM225 266.25H232.5H225ZM240 266.25H247.5H240ZM255 266.25H262.5H255ZM30 273.75H82.5H30ZM90 273.75H105H90ZM112.5 273.75H142.5H112.5ZM157.5 273.75H180H157.5ZM195 273.75H202.5H195ZM210 273.75H217.5H210ZM232.5 273.75H240H232.5ZM247.5 273.75H255H247.5ZM262.5 273.75H270H262.5Z" fill="black"/>
<path d="M30 33.75H82.5M97.5 33.75H112.5M127.5 33.75H135M150 33.75H180M202.5 33.75H210M225 33.75H277.5M30 41.25H37.5M75 41.25H82.5M97.5 41.25H105M120 41.25H127.5M135 41.25H157.5M180 41.25H195M225 41.25H232.5M270 41.25H277.5M30 48.75H37.5M45 48.75H67.5M75 48.75H82.5M90 48.75H120M135 48.75H142.5M165 48.75H172.5M180 48.75H195M210 48.75H217.5M225 48.75H232.5M240 48.75H262.5M270 48.75H277.5M30 56.25H37.5M45 56.25H67.5M75 56.25H82.5M90 56.25H112.5M127.5 56.25H135M142.5 56.25H165M172.5 56.25H180M195 56.25H210M225 56.25H232.5M240 56.25H262.5M270 56.25H277.5M30 63.75H37.5M45 63.75H67.5M75 63.75H82.5M90 63.75H97.5M120 63.75H142.5M157.5 63.75H165M172.5 63.75H187.5M195 63.75H210M225 63.75H232.5M240 63.75H262.5M270 63.75H277.5M30 71.25H37.5M75 71.25H82.5M90 71.25H105M127.5 71.25H165M180 71.25H187.5M195 71.25H202.5M225 71.25H232.5M270 71.25H277.5M30 78.75H82.5M90 78.75H97.5M105 78.75H112.5M120 78.75H127.5M135 78.75H142.5M150 78.75H157.5M165 78.75H172.5M180 78.75H187.5M195 78.75H202.5M210 78.75H217.5M225 78.75H277.5M90 86.25H97.5M105 86.25H112.5M120 86.25H127.5M135 86.25H142.5M150 86.25H157.5M165 86.25H195M202.5 86.25H210M30 93.75H37.5M45 93.75H82.5M97.5 93.75H105M127.5 93.75H150M157.5 93.75H165M195 93.75H202.5M210 93.75H217.5M225 93.75H262.5M30 101.25H37.5M52.5 101.25H60M120 101.25H135M150 101.25H157.5M165 101.25H210M225 101.25H240M247.5 101.25H277.5M52.5 108.75H60M67.5 108.75H82.5M105 108.75H120M135 108.75H157.5M180 108.75H187.5M210 108.75H225M240 108.75H247.5M255 108.75H270M52.5 116.25H67.5M82.5 116.25H90M105 116.25H112.5M120 116.25H127.5M135 116.25H142.5M187.5 116.25H210M217.5 116.25H232.5M240 116.25H262.5M270 116.25H277.5M37.5 123.75H45M75 123.75H90M112.5 123.75H127.5M142.5 123.75H165M195 123.75H210M217.5 123.75H225M232.5 123.75H255M262.5 123.75H277.5M45 131.25H67.5M82.5 131.25H90M127.5 131.25H135M150 131.25H157.5M165 131.25H172.5M180 131.25H195M217.5 131.25H232.5M247.5 131.25H277.5M45 138.75H52.5M60 138.75H67.5M75 138.75H82.5M90 138.75H127.5M135 138.75H172.5M180 138.75H187.5M217.5 138.75H232.5M255 138.75H270M30 146.25H37.5M52.5 146.25H75M82.5 146.25H97.5M105 146.25H127.5M172.5 146.25H202.5M217.5 146.25H262.5M30 153.75H67.5M75 153.75H82.5M97.5 153.75H105M112.5 153.75H127.5M135 153.75H165M172.5 153.75H180M195 153.75H225M232.5 153.75H255M270 153.75H277.5M30 161.25H37.5M52.5 161.25H60M67.5 161.25H75M120 161.25H135M150 161.25H157.5M165 161.25H240M247.5 161.25H262.5M270 161.25H277.5M37.5 168.75H45M75 168.75H82.5M97.5 168.75H112.5M120 168.75H127.5M142.5 168.75H172.5M187.5 168.75H202.5M232.5 168.75H247.5M255 168.75H262.5M45 176.25H52.5M90 176.25H97.5M105 176.25H127.5M135 176.25H157.5M165 176.25H180M187.5 176.25H195M202.5 176.25H210M217.5 176.25H270M52.5 183.75H60M67.5 183.75H97.5M127.5 183.75H150M157.5 183.75H165M210 183.75H225M232.5 183.75H255M30 191.25H45M67.5 191.25H75M97.5 191.25H112.5M120 191.25H127.5M135 191.25H142.5M150 191.25H172.5M180 191.25H202.5M225 191.25H232.5M255 191.25H262.5M270 191.25H277.5M30 198.75H37.5M52.5 198.75H67.5M75 198.75H90M105 198.75H112.5M127.5 198.75H135M142.5 198.75H165M180 198.75H202.5M217.5 198.75H225M240 198.75H255M262.5 198.75H270M30 206.25H37.5M45 206.25H52.5M67.5 206.25H75M97.5 206.25H127.5M142.5 206.25H150M187.5 206.25H195M217.5 206.25H232.5M240 206.25H262.5M270 206.25H277.5M30 213.75H37.5M75 213.75H82.5M90 213.75H97.5M105 213.75H112.5M120 213.75H142.5M157.5 213.75H165M180 213.75H187.5M195 213.75H247.5M262.5 213.75H277.5M90 221.25H97.5M105 221.25H112.5M135 221.25H142.5M150 221.25H195M202.5 221.25H217.5M240 221.25H247.5M255 221.25H262.5M270 221.25H277.5M30 228.75H82.5M97.5 228.75H105M127.5 228.75H165M180 228.75H187.5M202.5 228.75H217.5M225 228.75H232.5M240 228.75H247.5M255 228.75H270M30 236.25H37.5M75 236.25H82.5M90 236.25H112.5M127.5 236.25H142.5M150 236.25H157.5M165 236.25H217.5M240 236.25H262.5M30 243.75H37.5M45 243.75H67.5M75 243.75H82.5M90 243.75H105M150 243.75H157.5M180 243.75H187.5M195 243.75H202.5M210 243.75H255M262.5 243.75H277.5M30 251.25H37.5M45 251.25H67.5M75 251.25H82.5M90 251.25H97.5M105 251.25H135M150 251.25H165M172.5 251.25H180M187.5 251.25H195M202.5 251.25H210M217.5 251.25H225M240 251.25H247.5M262.5 251.25H277.5M30 258.75H37.5M45 258.75H67.5M75 258.75H82.5M90 258.75H135M142.5 258.75H157.5M187.5 258.75H195M202.5 258.75H240M247.5 258.75H262.5M30 266.25H37.5M75 266.25H82.5M105 266.25H112.5M127.5 266.25H150M180 266.25H210M225 266.25H232.5M240 266.25H247.5M255 266.25H262.5M30 273.75H82.5M90 273.75H105M112.5 273.75H142.5M157.5 273.75H180M195 273.75H202.5M210 273.75H217.5M232.5 273.75H240M247.5 273.75H255M262.5 273.75H270" stroke="black" stroke-width="7.5"/>
</svg>
