<svg width="334" height="58" viewBox="0 0 334 58" fill="none" xmlns="http://www.w3.org/2000/svg">
<path fill-rule="evenodd" clip-rule="evenodd" d="M142.874 31.9758H155.52C156.945 31.9758 157.727 33.1411 157.258 34.5668L150.849 54.0476C150.38 55.4733 148.831 56.6386 147.406 56.6386H134.759C133.334 56.6386 132.552 55.4733 133.021 54.0476L139.43 34.5668C139.899 33.1411 141.448 31.9758 142.874 31.9758Z" fill="white"/>
<path fill-rule="evenodd" clip-rule="evenodd" d="M152.71 2.86678C151.667 4.98935 139.744 27.2415 141.661 27.3628C164.731 28.831 157.465 30.7862 168.621 54.0448C169.27 55.3966 170.64 56.6358 172.065 56.6358H184.711C186.137 56.6358 187.098 55.3981 186.45 54.0448L162.79 4.71834C159.09 -2.99548 153.857 0.535012 152.71 2.86678Z" fill="#00CEFF"/>
<path d="M13.3568 28.0754C15.1873 28.0754 16.9126 28.4281 18.5328 29.133C20.153 29.8378 21.5627 30.7965 22.7625 32.0083C23.962 33.2204 24.9083 34.6364 25.6008 36.2566C26.2932 37.8768 26.6395 39.6021 26.6395 41.4325C26.6395 43.2627 26.2932 44.988 25.6008 46.6082C24.9083 48.2284 23.962 49.6381 22.7625 50.8379C21.5627 52.0374 20.153 52.9837 18.5328 53.6762C16.9126 54.3687 15.1873 54.7152 13.3568 54.7152C12.2686 54.7152 11.2173 54.5915 10.2033 54.3439C9.18898 54.0966 8.2368 53.7504 7.34645 53.3052V57.7575H0V41.4325C0 39.6021 0.346249 37.8768 1.039 36.2566C1.7315 34.6364 2.68394 33.2204 3.89581 32.0083C5.10794 30.7965 6.52385 29.8378 8.14405 29.133C9.76426 28.4281 11.5019 28.0754 13.3568 28.0754ZM13.3568 47.4429C14.1733 47.4429 14.94 47.2822 15.6572 46.9606C16.3747 46.6391 17.0053 46.2063 17.5494 45.662C18.0938 45.1178 18.5204 44.481 18.8296 43.7514C19.1387 43.0215 19.2933 42.2487 19.2933 41.4325C19.2933 40.5914 19.1387 39.8061 18.8296 39.0763C18.5204 38.3467 18.0938 37.7098 17.5494 37.1657C17.0053 36.6214 16.3747 36.1947 15.6572 35.8856C14.94 35.5764 14.1733 35.4219 13.3568 35.4219C12.516 35.4219 11.7307 35.5764 11.0009 35.8856C10.2713 36.1947 9.63442 36.6214 9.09005 37.1657C8.54595 37.7098 8.11932 38.3467 7.81017 39.0763C7.50102 39.8061 7.34645 40.5914 7.34645 41.4325C7.34645 42.2487 7.50102 43.0215 7.81017 43.7514C8.11932 44.481 8.54595 45.1178 9.09005 45.662C9.63442 46.2063 10.2713 46.6391 11.0009 46.9606C11.7307 47.2822 12.516 47.4429 13.3568 47.4429ZM44.115 35.5703C43.8924 35.4961 43.6575 35.4528 43.4101 35.4404C43.1626 35.428 42.9029 35.4219 42.6308 35.4219C41.5673 35.4219 40.5654 35.6259 39.6256 36.034C38.6855 36.4421 37.8632 36.9985 37.1583 37.7036C36.4532 38.4085 35.8906 39.2373 35.4701 40.1895C35.0497 41.1417 34.8395 42.1497 34.8395 43.2132V57.7575H27.5672V43.2132C27.5672 41.1107 27.9629 39.1443 28.7546 37.3141C29.546 35.4837 30.6221 33.882 31.9824 32.5092C33.3429 31.1365 34.9384 30.0542 36.7686 29.2628C38.599 28.4714 40.5531 28.0754 42.6308 28.0754C43.8924 28.0754 45.1228 28.23 46.3226 28.5394C47.5221 28.8485 48.6662 29.2875 49.7544 29.8564L44.115 35.5703ZM60.1061 28.0754C62.1591 28.0754 64.0884 28.4652 65.8944 29.2443C67.6998 30.0233 69.2706 31.0871 70.6064 32.435C71.9419 33.7831 72.9994 35.36 73.7785 37.1657C74.5578 38.9712 74.9474 40.8882 74.9474 42.9164V57.7575H67.6009V42.9164C67.6009 41.9024 67.403 40.9438 67.0073 40.0411C66.6116 39.1381 66.0799 38.3529 65.4119 37.6851C64.7438 37.0171 63.9524 36.4853 63.0371 36.0896C62.122 35.6939 61.1448 35.4961 60.1061 35.4961C59.0918 35.4961 58.1334 35.6939 57.2307 36.0896C56.3277 36.4853 55.5425 37.0171 54.8745 37.6851C54.2067 38.3529 53.675 39.1381 53.2793 40.0411C52.8835 40.9438 52.6854 41.9024 52.6854 42.9164C52.6854 43.9307 52.8835 44.8891 53.2793 45.7921C53.675 46.6948 54.2067 47.48 54.8745 48.148C55.5425 48.8158 56.3277 49.3475 57.2307 49.7432C58.1334 50.1392 59.0918 50.3371 60.1061 50.3371H67.5267L60.1061 57.7575C58.0531 57.7327 56.1299 57.3308 54.3365 56.5515C52.5432 55.7725 50.9789 54.7152 49.6431 53.3794C48.3073 52.0436 47.2562 50.4793 46.4895 48.686C45.7226 46.8926 45.3392 44.9695 45.3392 42.9164C45.3392 40.8882 45.7226 38.9712 46.4895 37.1657C47.2562 35.36 48.3073 33.7831 49.6431 32.435C50.9789 31.0871 52.5432 30.0233 54.3365 29.2443C56.1299 28.4652 58.0531 28.0754 60.1061 28.0754ZM91.4949 35.4219H87.7106V57.7575H80.3642V35.4219H73.2406V28.0754H98.8413L91.4949 35.4219ZM102.403 28.0754V57.7575H95.0568V35.3477L102.403 28.0754ZM118.58 57.7575C116.527 57.7575 114.604 57.3679 112.81 56.5886C111.017 55.8096 109.446 54.7461 108.098 53.3979C106.75 52.0498 105.687 50.4793 104.908 48.686C104.128 46.8926 103.739 44.9695 103.739 42.9164C103.739 40.8634 104.128 38.9279 104.908 37.1101C105.687 35.292 106.75 33.7089 108.098 32.3608C109.446 31.0129 111.017 29.9491 112.81 29.1701C114.604 28.391 116.527 28.0012 118.58 28.0012C120.583 28.0012 122.488 28.3786 124.294 29.133C126.099 29.8873 127.707 30.9696 129.117 32.3793L123.922 37.5738C123.205 36.8563 122.389 36.3184 121.474 35.9598C120.559 35.6012 119.594 35.4219 118.58 35.4219C117.566 35.4219 116.601 35.6197 115.686 36.0154C114.771 36.4111 113.973 36.9429 113.293 37.6109C112.612 38.2787 112.075 39.0701 111.679 39.9854C111.283 40.9005 111.085 41.8777 111.085 42.9164C111.085 43.9554 111.283 44.9324 111.679 45.8477C112.075 46.7628 112.612 47.5542 113.293 48.2222C113.973 48.89 114.771 49.4217 115.686 49.8174C116.601 50.2134 117.566 50.4113 118.58 50.4113C119.594 50.4113 120.559 50.2196 121.474 49.836C122.389 49.4526 123.205 48.9024 123.922 48.1851L129.117 53.3794C127.707 54.7894 126.099 55.8714 124.294 56.6257C122.488 57.3803 120.583 57.7575 118.58 57.7575Z" fill="white"/>
<path d="M216.718 25.3615C218.202 25.3615 219.6 25.6462 220.911 26.215C222.222 26.7839 223.36 27.5506 224.324 28.5154C225.289 29.4799 226.056 30.6117 226.625 31.9101C227.193 33.2088 227.478 34.5879 227.478 36.0471V55.0436H220.132V36.0471C220.132 35.1072 219.798 34.3156 219.13 33.6725C218.462 33.0295 217.658 32.708 216.718 32.708C215.778 32.708 214.975 33.0295 214.307 33.6725C213.639 34.3156 213.305 35.1072 213.305 36.0471V55.0436H206.033V36.0471C206.033 35.1072 205.699 34.3156 205.031 33.6725C204.363 33.0295 203.559 32.708 202.619 32.708C201.68 32.708 200.876 33.0295 200.208 33.6725C199.54 34.3156 199.206 35.1072 199.206 36.0471V55.0436H191.934V36.0471C191.934 34.5879 192.218 33.2088 192.787 31.9101C193.356 30.6117 194.123 29.4799 195.087 28.5154C196.052 27.5506 197.184 26.7839 198.482 26.215C199.781 25.6462 201.16 25.3615 202.619 25.3615C204.005 25.3615 205.291 25.6029 206.478 26.0852C207.665 26.5675 208.729 27.2167 209.669 28.0331C210.634 27.2167 211.716 26.5675 212.915 26.0852C214.115 25.6029 215.383 25.3615 216.718 25.3615ZM238.015 36.418H249.888C249.245 35.2556 248.348 34.322 247.198 33.6169C246.048 32.912 244.768 32.5596 243.358 32.5596C242.319 32.5596 241.342 32.7574 240.427 33.1532C239.512 33.5489 238.708 34.093 238.015 34.7857C237.323 35.4782 236.778 36.282 236.383 37.1973C235.987 38.1124 235.789 39.0896 235.789 40.1284C235.789 41.1674 235.987 42.1443 236.383 43.0596C236.778 43.9747 237.323 44.7785 238.015 45.4712C238.708 46.1637 239.512 46.7079 240.427 47.1036C241.342 47.4995 242.319 47.6974 243.358 47.6974H254.86L247.439 55.0436H243.358C241.305 55.0436 239.369 54.654 237.551 53.8747C235.733 53.0957 234.15 52.0322 232.802 50.684C231.454 49.3359 230.391 47.753 229.612 45.935C228.832 44.1169 228.443 42.1814 228.443 40.1284C228.443 38.0753 228.832 36.1398 229.612 34.322C230.391 32.5039 231.454 30.9208 232.802 29.5727C234.15 28.2248 235.733 27.161 237.551 26.382C239.369 25.6029 241.305 25.2131 243.358 25.2131C245.411 25.2131 247.346 25.6029 249.165 26.382C250.982 27.161 252.565 28.2248 253.914 29.5727C255.262 30.9208 256.325 32.5039 257.104 34.322C257.884 36.1398 258.273 38.0753 258.273 40.1284V43.7645H245.436L238.015 36.418ZM286.694 55.0436H279.421V39.0896C279.421 38.199 279.254 37.3643 278.921 36.5852C278.587 35.8059 278.129 35.132 277.548 34.5631C276.966 33.994 276.286 33.5427 275.507 33.2088C274.728 32.8749 273.906 32.708 273.04 32.708C272.149 32.708 271.315 32.8749 270.535 33.2088C269.756 33.5427 269.07 33.994 268.476 34.5631C267.883 35.132 267.419 35.8059 267.085 36.5852C266.751 37.3643 266.584 38.199 266.584 39.0896V55.0436H259.312V39.0896C259.312 37.2097 259.671 35.4349 260.388 33.7653C261.105 32.0956 262.089 30.6364 263.338 29.3872C264.587 28.1382 266.04 27.1549 267.697 26.4376C269.354 25.7204 271.135 25.3615 273.04 25.3615C274.92 25.3615 276.694 25.7204 278.364 26.4376C280.034 27.1549 281.481 28.1382 282.705 29.3872C283.93 30.6364 284.9 32.0956 285.618 33.7653C286.335 35.4349 286.694 37.2097 286.694 39.0896V55.0436ZM303.39 32.708H299.605V55.0436H292.259V32.708H285.135V25.3615H310.736L303.39 32.708ZM313.741 36.418H325.614C324.971 35.2556 324.075 34.322 322.925 33.6169C321.774 32.912 320.494 32.5596 319.084 32.5596C318.045 32.5596 317.068 32.7574 316.153 33.1532C315.238 33.5489 314.434 34.093 313.741 34.7857C313.049 35.4782 312.505 36.282 312.109 37.1973C311.713 38.1124 311.515 39.0896 311.515 40.1284C311.515 41.1674 311.713 42.1443 312.109 43.0596C312.505 43.9747 313.049 44.7785 313.741 45.4712C314.434 46.1637 315.238 46.7079 316.153 47.1036C317.068 47.4995 318.045 47.6974 319.084 47.6974H330.586L323.166 55.0436H319.084C317.031 55.0436 315.096 54.654 313.277 53.8747C311.459 53.0957 309.877 52.0322 308.528 50.684C307.181 49.3359 306.117 47.753 305.338 45.935C304.558 44.1169 304.169 42.1814 304.169 40.1284C304.169 38.0753 304.558 36.1398 305.338 34.322C306.117 32.5039 307.181 30.9208 308.528 29.5727C309.877 28.2248 311.459 27.161 313.277 26.382C315.096 25.6029 317.031 25.2131 319.084 25.2131C321.137 25.2131 323.073 25.6029 324.891 26.382C326.709 27.161 328.292 28.2248 329.64 29.5727C330.988 30.9208 332.052 32.5039 332.831 34.322C333.61 36.1398 334 38.0753 334 40.1284V43.7645H321.162L313.741 36.418Z" fill="white"/>
</svg>
